<svg width="24" height="25" viewBox="0 0 24 25" xmlns="http://www.w3.org/2000/svg">
    <path d="M7 15.0476H10C10.2652 15.0476 10.5196 14.9423 10.7071 14.7547C10.8946 14.5672 11 14.3128 11 14.0476C11 13.7824 10.8946 13.528 10.7071 13.3405C10.5196 13.153 10.2652 13.0476 10 13.0476H7C6.73478 13.0476 6.48043 13.153 6.29289 13.3405C6.10536 13.528 6 13.7824 6 14.0476C6 14.3128 6.10536 14.5672 6.29289 14.7547C6.48043 14.9423 6.73478 15.0476 7 15.0476ZM19 5.04761H5C4.20435 5.04761 3.44129 5.36368 2.87868 5.92629C2.31607 6.4889 2 7.25196 2 8.04761V17.0476C2 17.8433 2.31607 18.6063 2.87868 19.1689C3.44129 19.7315 4.20435 20.0476 5 20.0476H19C19.7956 20.0476 20.5587 19.7315 21.1213 19.1689C21.6839 18.6063 22 17.8433 22 17.0476V8.04761C22 7.25196 21.6839 6.4889 21.1213 5.92629C20.5587 5.36368 19.7956 5.04761 19 5.04761ZM20 17.0476C20 17.3128 19.8946 17.5672 19.7071 17.7547C19.5196 17.9423 19.2652 18.0476 19 18.0476H5C4.73478 18.0476 4.48043 17.9423 4.29289 17.7547C4.10536 17.5672 4 17.3128 4 17.0476V11.0476H20V17.0476ZM20 9.04761H4V8.04761C4 7.78239 4.10536 7.52804 4.29289 7.3405C4.48043 7.15296 4.73478 7.04761 5 7.04761H19C19.2652 7.04761 19.5196 7.15296 19.7071 7.3405C19.8946 7.52804 20 7.78239 20 8.04761V9.04761Z" />
</svg>
