<svg width="24" height="25" viewBox="0 0 24 25"  xmlns="http://www.w3.org/2000/svg">
    <path d="M6 13.0476H2C1.73478 13.0476 1.48043 13.153 1.29289 13.3405C1.10536 13.528 1 13.7824 1 14.0476V22.0476C1 22.3128 1.10536 22.5672 1.29289 22.7547C1.48043 22.9423 1.73478 23.0476 2 23.0476H6C6.26522 23.0476 6.51957 22.9423 6.70711 22.7547C6.89464 22.5672 7 22.3128 7 22.0476V14.0476C7 13.7824 6.89464 13.528 6.70711 13.3405C6.51957 13.153 6.26522 13.0476 6 13.0476ZM5 21.0476H3V15.0476H5V21.0476ZM22 9.04761H18C17.7348 9.04761 17.4804 9.15296 17.2929 9.3405C17.1054 9.52804 17 9.78239 17 10.0476V22.0476C17 22.3128 17.1054 22.5672 17.2929 22.7547C17.4804 22.9423 17.7348 23.0476 18 23.0476H22C22.2652 23.0476 22.5196 22.9423 22.7071 22.7547C22.8946 22.5672 23 22.3128 23 22.0476V10.0476C23 9.78239 22.8946 9.52804 22.7071 9.3405C22.5196 9.15296 22.2652 9.04761 22 9.04761ZM21 21.0476H19V11.0476H21V21.0476ZM14 1.04761H10C9.73478 1.04761 9.48043 1.15296 9.29289 1.3405C9.10536 1.52804 9 1.78239 9 2.04761V22.0476C9 22.3128 9.10536 22.5672 9.29289 22.7547C9.48043 22.9423 9.73478 23.0476 10 23.0476H14C14.2652 23.0476 14.5196 22.9423 14.7071 22.7547C14.8946 22.5672 15 22.3128 15 22.0476V2.04761C15 1.78239 14.8946 1.52804 14.7071 1.3405C14.5196 1.15296 14.2652 1.04761 14 1.04761ZM13 21.0476H11V3.04761H13V21.0476Z"/>
</svg>
