<?xml version="1.0" encoding="utf-8"?>
<!-- Generator: Adobe Illustrator 27.9.0, SVG Export Plug-In . SVG Version: 6.00 Build 0)  -->
<svg version="1.1" id="Layer_1" xmlns="http://www.w3.org/2000/svg" xmlns:xlink="http://www.w3.org/1999/xlink" x="0px" y="0px"
	 viewBox="0 0 1012.2 191.7" style="enable-background:new 0 0 1012.2 191.7;" xml:space="preserve">
<style type="text/css">
	.st0{enable-background:new    ;}
</style>
<g>
	<g>
		<g>
			<g class="st0">
				<path d="M525.3,71.8c3.8,0,7,0.3,9.7,1c2.6,0.7,4.7,1.7,6.3,3.1c1.6,1.4,2.7,3.2,3.4,5.4c0.7,2.2,1,4.8,1,7.9v27.7
					c0,1.3-0.6,1.9-1.9,1.9h-8.4c-1.3,0-1.9-0.6-1.9-1.9V92.1c0-1.8-0.1-3.3-0.3-4.5c-0.2-1.2-0.7-2.2-1.3-2.9
					c-0.7-0.7-1.6-1.2-2.7-1.5c-1.1-0.3-2.6-0.5-4.4-0.5H502c-1.8,0-3.3,0.2-4.5,0.5c-1.2,0.3-2.2,0.8-2.9,1.5
					c-0.7,0.7-1.2,1.7-1.5,2.9c-0.3,1.2-0.4,2.7-0.4,4.5v24.8c0,1.3-0.6,1.9-1.9,1.9h-8.4c-1.3,0-2-0.6-2-1.9V89.2
					c0-3.1,0.3-5.7,1-7.9c0.7-2.2,1.8-4,3.4-5.4c1.6-1.4,3.6-2.4,6.2-3.1c2.6-0.7,5.8-1,9.7-1H525.3z"/>
				<path d="M609.7,71.8c2.9,0,5.3,0.2,7.2,0.7c1.9,0.5,3.4,1.3,4.5,2.4c1.1,1.1,1.9,2.6,2.3,4.4c0.5,1.8,0.7,4,0.7,6.5V94
					c0,1.8-0.4,3.1-1.2,3.8c-0.8,0.7-2,1.1-3.7,1.1h-43.1v2.1c0,2.7,0.6,4.6,1.9,5.8c1.3,1.2,3.8,1.8,7.5,1.8h35.6
					c1,0,1.5,0.5,1.5,1.5v7.2c0,1-0.5,1.5-1.5,1.5h-36.8c-3.9,0-7.1-0.3-9.7-0.9c-2.6-0.6-4.7-1.6-6.2-3c-1.6-1.4-2.7-3.2-3.4-5.4
					c-0.7-2.2-1-4.8-1-7.9V89.2c0-3.1,0.3-5.7,1-7.9c0.7-2.2,1.8-4,3.4-5.4c1.6-1.4,3.6-2.4,6.2-3.1c2.6-0.7,5.8-1,9.7-1H609.7z
					 M576.5,91.2h34.6c1,0,1.5-0.5,1.5-1.5v-3.6c0-1.8-0.4-3-1.1-3.8c-0.7-0.7-2.1-1.1-4.1-1.1h-21.4c-3.7,0-6.2,0.6-7.5,1.8
					c-1.3,1.2-1.9,3.1-1.9,5.9V91.2z"/>
				<path d="M653.8,71.8c0.6,0,1.1,0.1,1.5,0.3s0.7,0.4,1,0.8l16.8,15.4l17.3-15.4c0.3-0.3,0.6-0.6,0.9-0.8s0.8-0.3,1.5-0.3h9.7
					c0.8,0,1.3,0.3,1.4,0.8c0.1,0.5,0,1-0.5,1.5l-22.8,20.9l23.5,21.4c0.4,0.5,0.5,0.9,0.4,1.5s-0.6,0.8-1.4,0.8h-10.9
					c-0.6,0-1.1-0.1-1.5-0.3c-0.4-0.2-0.7-0.4-1-0.7l-18.1-16.6L653,117.8c-0.3,0.3-0.6,0.5-0.9,0.7s-0.8,0.3-1.5,0.3H641
					c-0.8,0-1.3-0.3-1.4-0.8c-0.1-0.5,0-1,0.5-1.5l24.1-22.1l-22-20.3c-0.5-0.5-0.6-1-0.5-1.5c0.1-0.5,0.6-0.8,1.4-0.8H653.8z"/>
				<path d="M759,71.8c3.8,0,7,0.3,9.7,1c2.6,0.7,4.7,1.7,6.3,3.1c1.6,1.4,2.7,3.2,3.4,5.4c0.7,2.2,1,4.8,1,7.9v22.7
					c0,1.4-0.1,2.5-0.3,3.4c-0.2,0.9-0.5,1.6-1,2.1c-0.5,0.5-1.1,0.9-1.9,1.1c-0.8,0.2-1.8,0.3-3.1,0.3h-40.7
					c-2.5,0-4.6-0.2-6.3-0.7c-1.7-0.5-3-1.2-4.1-2.2c-1-1-1.8-2.2-2.2-3.8c-0.4-1.5-0.6-3.4-0.6-5.5v-4.1c0-1.8,0.2-3.3,0.6-4.7
					c0.4-1.4,1.2-2.6,2.2-3.5c1-1,2.4-1.7,4.1-2.2c1.7-0.5,3.8-0.7,6.3-0.7h34.8v-1.6c0-1.4-0.1-2.5-0.4-3.5c-0.3-1-0.8-1.8-1.5-2.3
					s-1.6-1-2.8-1.3c-1.2-0.3-2.7-0.4-4.6-0.4h-35.7c-1,0-1.5-0.5-1.5-1.5v-7.2c0-1,0.5-1.5,1.5-1.5H759z M764.6,109.4
					c0.9,0,1.6-0.2,1.9-0.6c0.4-0.4,0.6-1.2,0.6-2.3v-7.5h-31.3c-1.8,0-3,0.4-3.7,1.1c-0.7,0.7-1.1,1.8-1.1,3.1v1.8
					c0,1.5,0.4,2.7,1.1,3.4c0.7,0.7,2,1.1,3.7,1.1H764.6z"/>
				<path d="M842.5,71.8c1,0,1.5,0.5,1.5,1.5v7.2c0,1-0.5,1.5-1.5,1.5h-22.7c-1.8,0-3.3,0.2-4.5,0.5c-1.2,0.3-2.2,0.8-2.9,1.5
					c-0.7,0.7-1.2,1.7-1.5,2.9c-0.3,1.2-0.4,2.7-0.4,4.5v25.4c0,1.3-0.6,1.9-1.9,1.9h-8.4c-1.3,0-2-0.6-2-1.9V89.2
					c0-3.1,0.3-5.7,1-7.9c0.7-2.2,1.8-4,3.4-5.4c1.6-1.4,3.6-2.4,6.2-3.1c2.6-0.7,5.8-1,9.7-1H842.5z"/>
				<path d="M904.3,71.8c2.9,0,5.3,0.2,7.2,0.7c1.9,0.5,3.4,1.3,4.5,2.4c1.1,1.1,1.9,2.6,2.3,4.4c0.5,1.8,0.7,4,0.7,6.5V94
					c0,1.8-0.4,3.1-1.2,3.8c-0.8,0.7-2,1.1-3.7,1.1h-43.1v2.1c0,2.7,0.6,4.6,1.9,5.8c1.3,1.2,3.8,1.8,7.5,1.8h35.6
					c1,0,1.5,0.5,1.5,1.5v7.2c0,1-0.5,1.5-1.5,1.5h-36.8c-3.9,0-7.1-0.3-9.7-0.9c-2.6-0.6-4.7-1.6-6.2-3c-1.6-1.4-2.7-3.2-3.4-5.4
					c-0.7-2.2-1-4.8-1-7.9V89.2c0-3.1,0.3-5.7,1-7.9c0.7-2.2,1.8-4,3.4-5.4c1.6-1.4,3.6-2.4,6.2-3.1c2.6-0.7,5.8-1,9.7-1H904.3z
					 M871.1,91.2h34.6c1,0,1.5-0.5,1.5-1.5v-3.6c0-1.8-0.4-3-1.1-3.8c-0.7-0.7-2.1-1.1-4.1-1.1h-21.4c-3.7,0-6.2,0.6-7.5,1.8
					c-1.3,1.2-1.9,3.1-1.9,5.9V91.2z"/>
				<path d="M976.2,71.8c3.8,0,7,0.3,9.7,1c2.6,0.7,4.7,1.7,6.3,3.1c1.6,1.4,2.7,3.2,3.4,5.4c0.7,2.2,1,4.8,1,7.9v22.7
					c0,1.4-0.1,2.5-0.3,3.4c-0.2,0.9-0.5,1.6-1,2.1c-0.5,0.5-1.1,0.9-1.9,1.1c-0.8,0.2-1.8,0.3-3.1,0.3h-40.7
					c-2.5,0-4.6-0.2-6.3-0.7c-1.7-0.5-3-1.2-4.1-2.2c-1-1-1.8-2.2-2.2-3.8c-0.4-1.5-0.6-3.4-0.6-5.5v-4.1c0-1.8,0.2-3.3,0.6-4.7
					c0.4-1.4,1.2-2.6,2.2-3.5c1-1,2.4-1.7,4.1-2.2c1.7-0.5,3.8-0.7,6.3-0.7h34.8v-1.6c0-1.4-0.1-2.5-0.4-3.5c-0.3-1-0.8-1.8-1.5-2.3
					s-1.6-1-2.8-1.3c-1.2-0.3-2.7-0.4-4.6-0.4h-35.7c-1,0-1.5-0.5-1.5-1.5v-7.2c0-1,0.5-1.5,1.5-1.5H976.2z M981.8,109.4
					c0.9,0,1.6-0.2,1.9-0.6c0.4-0.4,0.6-1.2,0.6-2.3v-7.5H953c-1.8,0-3,0.4-3.7,1.1c-0.7,0.7-1.1,1.8-1.1,3.1v1.8
					c0,1.5,0.4,2.7,1.1,3.4c0.7,0.7,2,1.1,3.7,1.1H981.8z"/>
			</g>
		</g>
	</g>
	<g>
		<polygon points="25,191.7 0,176.2 0,29.6 37.7,6.3 336,155.5 348.8,147.6 348.8,30.1 348.6,29.9 273.8,67.3 308.3,84.1 
			296.9,107.6 214.7,67.7 350,0 375,15.5 375,162.1 337.4,185.4 39,36.2 26.2,44.2 26.2,161.7 26.4,161.8 101.2,124.4 66.7,107.6 
			78.1,84.1 160.3,124.1 		"/>
	</g>
</g>
</svg>
